<svg width="36" height="25" viewBox="0 0 36 25" version="1.1" xmlns="http://www.w3.org/2000/svg" xmlns:xlink="http://www.w3.org/1999/xlink">
<title>logo</title>
<desc>Created using Figma</desc>
<g id="Canvas" transform="translate(-1330 -163)">
<g id="logo">
<use xlink:href="#path0_fill" transform="translate(1330.24 163.684)"/>
</g>
</g>
<defs>
<path id="path0_fill" fill-rule="evenodd" d="M 7.23826 24L 7.23826 4.60604L 0 4.60604L 0 0L 25.9163 0C 26.7012 1.66235 27.4748 3.37085 28.2368 5.12555C 28.9985 6.85717 29.7605 8.69263 30.5225 10.6321C 31.3074 12.5714 32.104 14.6378 32.9122 16.8312C 33.72 19.0245 34.5743 21.4142 35.4748 24L 29.6911 24C 29.4371 23.1688 29.1486 22.3146 28.8255 21.4372L 27.9251 18.8052L 18.5744 18.8052C 18.2743 19.6826 17.9625 20.5599 17.6394 21.4372C 17.3393 22.3146 17.062 23.1688 16.808 24L 7.23826 24ZM 12.6407 4.60604L 18.628 4.60604C 18.5522 4.77876 18.4765 4.95191 18.4011 5.12555C 17.6623 6.85717 16.9003 8.69263 16.1154 10.6321C 15.3534 12.5714 14.5685 14.6378 13.7603 16.8312C 13.3964 17.8189 13.0233 18.8464 12.6407 19.9137L 12.6407 4.60604ZM 22.6956 6.85717C 22.9263 6.25686 23.0997 5.78355 23.2149 5.43724C 23.3537 5.78355 23.5383 6.25686 23.769 6.85717C 24.0001 7.45744 24.2654 8.15009 24.5656 8.93505C 24.889 9.72005 25.2237 10.5859 25.57 11.5325C 25.9163 12.4791 26.2742 13.4719 26.6438 14.5108L 19.8212 14.5108C 20.1904 13.4719 20.5483 12.4791 20.8946 11.5325C 21.2642 10.5859 21.5989 9.72005 21.899 8.93505C 22.1992 8.15009 22.4648 7.45744 22.6956 6.85717Z"/>
</defs>
</svg>
